<svg width="23" height="57" viewBox="0 0 23 57" fill="none" xmlns="http://www.w3.org/2000/svg">
<g clip-path="url(#clip0_74_120)">
<path d="M3.36902 0.958847C1.46138 1.83556 0.379025 3.452 0.379025 5.4246C0.379025 7.75336 1.54255 9.65747 3.28785 10.4657C3.15255 10.9314 3.11197 11.3698 3.11197 11.726C3.11197 12.3972 3.24726 13.2191 3.73432 14.0958C2.28667 14.5753 0.365496 15.9588 0.365496 19.9999C0.365496 21.452 0.798437 22.8219 1.6102 24.0273C0.568437 25.7534 -0.0268567 27.9999 -0.0268566 30.6164C-0.0268565 33.2328 0.676673 35.6575 1.96197 37.5616C1.9755 37.589 2.00256 37.6164 2.01609 37.6438C0.920203 38.4931 0.230203 39.7397 0.0949086 41.2191C0.0813792 41.4383 0.0678497 41.6575 0.0678498 41.8766C0.0678498 43.9725 1.02844 45.452 2.24609 47.3287L5.39844 52.0821C6.6702 53.9999 8.17197 55.0547 9.86314 55.2054C10.7696 55.2876 11.6355 55.1369 12.4067 54.7945C13.2184 56.041 14.4902 56.8356 16.0731 56.9725C17.7914 57.1232 19.3473 56.6027 20.4567 55.5068C21.3496 54.6164 21.9179 53.3698 22.0396 51.9999C22.0531 51.8356 22.0667 51.6575 22.0667 51.4794C22.0667 49.0958 20.6326 47.0958 19.7667 45.8766C20.2402 45.6849 20.6867 45.4383 21.079 45.1095C21.8502 44.4794 22.8108 43.3013 22.9867 41.2739C23.0002 41.0821 23.0137 40.8903 23.0137 40.6986C23.0137 39.3698 22.5808 38.1643 21.7826 37.2328C22.459 35.7671 22.7973 33.9999 22.7973 31.9725C22.7973 29.1369 22.0126 26.4931 20.7137 24.4246C21.8367 23.3972 22.4996 21.904 22.4996 20.1369C22.4996 18.2602 21.539 16.452 19.929 15.2739L19.7667 15.1506C19.8884 15.0821 20.0102 15.0136 20.132 14.9314C21.0114 14.3698 22.4996 12.9588 22.4996 9.94515C22.4996 6.93145 20.7543 4.15063 17.602 2.26022C15.2478 0.849258 12.2308 -5.77563e-05 9.5655 -5.76398e-05C6.9002 -5.75233e-05 4.8302 0.301311 3.40961 0.958847L3.36902 0.958847Z" fill="black"/>
<path d="M14.4763 44.7534C14.571 43.4932 14.3951 42.6301 13.2993 42.3973L5.64162 40.7534C4.45103 40.4932 3.63927 41.0137 3.73397 41.9589C3.82868 42.9041 5.41162 43.8493 6.06103 44.2466L11.2428 47.411C12.6228 48.2466 12.7987 49.5069 12.731 50.3288C12.6228 51.6301 11.4457 52.6027 10.0928 52.4795C9.15927 52.3973 8.36103 51.6575 7.64397 50.5617L4.53221 45.7945C3.1928 43.7397 2.69221 42.8904 2.8275 41.4521C2.94927 40.1233 3.96397 39.3014 5.47927 39.1507L16.1675 38.0822C18.6569 37.8356 20.4699 38.7534 20.2669 41.0411C20.1046 42.8493 18.9004 43.6164 17.561 43.4932L16.4246 43.3973C15.2204 43.2877 15.0175 43.9178 15.5993 44.7534L17.2499 47.0822C18.0075 48.1781 19.4822 49.9589 19.3199 51.7808C19.2116 53.0685 18.3593 54.4384 16.3028 54.2466C14.5575 54.0822 13.9757 52.4247 14.0975 50.4795L14.4628 44.7534L14.4763 44.7534Z" fill="white"/>
<path d="M14.7334 39.1233C13.5292 39.1233 12.1222 38.6301 12.1222 37.3014C12.1222 36.2329 13.0151 35.5753 13.9487 35.5753L17.6828 35.5753C18.7381 35.5753 19.2792 34.9041 18.6434 33.5753L14.9363 25.7945C14.5034 24.863 14.1516 24.0685 13.3398 24.2877C12.5281 24.5069 12.4198 25.1918 12.7716 25.9589L14.9228 30.6712C15.8834 32.7808 14.4898 34.2192 12.9069 34.274L12.0681 34.3014C11.2563 34.3288 11.1481 34.6849 10.9451 35.5617L10.6204 36.9589C10.4039 37.863 9.52453 38.4658 8.61806 38.4658C4.80277 38.4658 2.71924 34.5069 2.71924 30.6027C2.71924 26.6986 4.34277 22.9589 8.29336 22.9589C9.84924 22.9589 10.9316 23.5617 10.9316 24.863C10.9316 25.726 10.0928 27.0411 8.32041 25.8356L6.87277 24.863C6.48041 24.6027 6.08806 24.6575 5.92571 24.8904C5.68218 25.2466 5.70924 25.7123 5.85806 26.4521L7.901 36.0274C8.10394 36.9863 8.50983 37.2055 8.96983 37.137C9.45689 37.0685 9.6463 36.7808 9.78159 36.0685L11.7975 24.7671C12.0139 23.5069 12.8934 22.8767 13.9487 22.8767C16.9928 22.8767 20.0639 26.8904 20.0639 31.9863C20.0639 37.0822 17.2769 39.137 14.7334 39.137L14.7334 39.1233Z" fill="white"/>
<path d="M6.91344 7.35617C6.30461 7.80823 5.74991 8.1233 5.22226 8.1233C4.0452 8.1233 3.09814 7.05481 3.09814 5.41097C3.09814 3.76714 4.68109 2.73974 9.53814 2.73974C13.6511 2.73974 19.7664 5.34248 19.7664 9.93152C19.7664 13.1096 17.507 13.7808 13.854 12.0274L10.4987 10.4247C10.3364 10.3425 10.1199 10.3151 9.97109 10.3151C9.74109 10.3151 9.51109 10.4247 9.51109 10.7671C9.51109 11.0411 9.78167 11.3288 10.0793 11.5343L18.3323 17.4932C19.3064 18.1918 19.7664 19.2466 19.7664 20.1233C19.7664 21.8767 18.6705 23.1507 16.587 23.1507C16.2081 23.1507 15.8023 23.1233 15.3693 23.0411L5.96638 21.137C5.14109 20.9863 4.68109 21.2877 4.68109 21.8219C4.68109 22.3151 4.99226 22.8082 5.80403 22.9178L9.64638 23.4247C10.5529 23.5343 10.9317 23.9315 10.9317 24.6165C10.9317 25 10.5934 25.4932 10.0523 25.4932C7.14344 25.4932 3.13873 23.3973 3.13873 19.9589C3.13873 17.548 3.97756 16.5617 5.24932 16.5617C6.15579 16.5617 7.23814 17.0959 8.45579 17.8904L13.3129 20.9863C14.0976 21.4932 14.5576 21.7945 15.1258 21.7945C15.7617 21.7945 16.2081 21.411 16.2081 20.6438C16.2081 20.0822 15.8293 19.726 14.8146 19.0411L7.61697 14.1781C6.60226 13.4932 5.8852 12.6575 5.8852 11.6986C5.8852 10.8904 6.30461 10.3562 7.65756 10.0274L14.3411 8.49316C15.4234 8.23289 16.1134 7.76713 16.1134 6.89042C16.1134 6.28768 15.924 5.79453 14.8281 5.20549L13.3129 4.36988C12.8258 4.0959 12.4334 3.91782 12.0411 3.91782C11.7299 3.91782 11.4323 4.04111 11.1076 4.27398L6.95403 7.32878L6.91344 7.35617Z" fill="white"/>
</g>
<defs>
<clipPath id="clip0_74_120">
<rect width="57" height="23" fill="white" transform="translate(0 57) rotate(-90)"/>
</clipPath>
</defs>
</svg>
