<svg width="84" height="29" viewBox="0 0 84 29" fill="none" xmlns="http://www.w3.org/2000/svg">
<g clip-path="url(#clip0_74_125)">
<path d="M14.7045 16.7355L13.6102 19.8256H11.8457L16.1134 8.50449H17.7138L21.9815 19.8256H20.217L19.1227 16.7355H14.7045ZM16.9204 10.5828L15.2106 15.3682H18.6439L16.9341 10.5828H16.9204Z" fill="black" stroke="black" stroke-width="0.5" stroke-miterlimit="10"/>
<path d="M22.0498 16.8312L23.6092 16.5714C23.7323 18.0618 25.1138 18.5403 26.2902 18.5403C27.4665 18.5403 28.8754 18.0481 28.8754 16.3937C28.8754 13.1532 22.296 16.1886 22.296 11.5672C22.296 9.58463 23.9101 8.29939 26.2491 8.32674C28.2188 8.35408 29.7508 9.37954 29.997 11.0613L28.4924 11.3348C28.3419 10.0905 27.2887 9.58463 26.2491 9.58463C25.1275 9.58463 23.9238 10.0632 23.9238 11.5535C23.9238 14.4521 30.5031 11.4441 30.5031 16.38C30.5031 17.8703 29.6824 19.8939 26.2902 19.8939C23.0894 19.8939 22.2003 18.2395 22.0498 16.8175V16.8312Z" fill="black" stroke="black" stroke-width="0.5" stroke-miterlimit="10"/>
<path d="M32.9105 14.165C32.9105 17.2824 34.3604 18.595 36.4532 18.5813C38.1904 18.5677 39.5446 17.7473 40.0097 15.6554L41.5417 15.9562C40.9398 18.6224 38.9154 19.9076 36.4396 19.9349C33.4576 19.9623 31.2007 18.0891 31.2007 14.165C31.2007 10.2409 33.4713 8.35408 36.4396 8.3951C38.9154 8.42245 40.9398 9.70769 41.5417 12.3739L40.0097 12.6747C39.5446 10.5828 38.1767 9.76238 36.4532 9.74871C34.3604 9.73504 32.9105 11.0476 32.9105 14.165Z" fill="black" stroke="black" stroke-width="0.5" stroke-miterlimit="10"/>
<path d="M44.0042 13.4404H48.9558V14.876H44.0042V18.3899H49.8449V19.8256H42.4038V8.50449H49.8449V9.94013H44.0042V13.4404Z" fill="black" stroke="black" stroke-width="0.5" stroke-miterlimit="10"/>
<path d="M59.6386 19.8256H58.0383L52.2933 10.9246V19.8256H50.6929V8.50449H52.2933L58.0383 17.4465V8.50449H59.6386V19.8256Z" fill="black" stroke="black" stroke-width="0.5" stroke-miterlimit="10"/>
<path d="M70.1985 14.165C70.1985 18.0208 67.5996 19.8256 64.4399 19.8256H60.6099V8.50449H64.4399C67.5996 8.50449 70.1985 10.3093 70.1985 14.165ZM68.5297 14.165C68.5297 11.0886 66.6695 9.84442 64.4399 9.84442H62.2103V18.4856H64.4399C66.6831 18.4856 68.5297 17.2277 68.5297 14.165Z" fill="black" stroke="black" stroke-width="0.5" stroke-miterlimit="10"/>
<path d="M41.9932 29C21.6395 29 0 23.9274 0 14.5068C0 5.08628 21.6395 0 41.9932 0C62.3468 0 83.9863 5.08628 83.9863 14.5068C83.9863 23.9274 62.3468 29.0137 41.9932 29.0137V29ZM41.9932 3.2678C19.1773 3.28147 3.28285 9.18812 3.28285 14.5068C3.28285 19.8256 19.191 25.7322 42.0068 25.7322C64.8227 25.7322 80.7308 19.8119 80.7308 14.5068C80.7308 9.20179 64.809 3.28147 41.9932 3.28147V3.2678Z" fill="black"/>
</g>
<defs>
<clipPath id="clip0_74_125">
<rect width="84" height="29" fill="white"/>
</clipPath>
</defs>
</svg>
