<svg width="36" height="36" viewBox="0 0 36 36" fill="none" xmlns="http://www.w3.org/2000/svg">
<g clip-path="url(#clip0_139_642)">
<path d="M0.0232313 21.455L21.5898 0.102593C21.5898 0.102593 13.9401 -1.28319 6.59424 6.05956C-0.747817 13.3985 0.0232313 21.455 0.0232313 21.455Z" fill="black"/>
<path d="M2.87192 29.8266L29.9802 2.98795C29.9802 2.98795 20.3629 1.24528 11.1332 10.4712C1.90336 19.6971 2.87192 29.8266 2.87192 29.8266Z" fill="black"/>
<path d="M15.0908 35.9735L35.9091 15.312C35.9091 15.312 37.1892 22.7155 30.0332 29.7507C22.8773 36.786 15.0908 35.9773 15.0908 35.9773V35.9735Z" fill="black"/>
<path d="M6.38075 33.4144L33.4548 6.54541C33.4548 6.54541 35.1185 16.1738 25.8089 25.3199C16.4993 34.4661 6.37695 33.4144 6.37695 33.4144H6.38075Z" fill="black"/>
</g>
<defs>
<clipPath id="clip0_139_642">
<rect width="36" height="36" fill="white"/>
</clipPath>
</defs>
</svg>
