<svg width="41" height="41" viewBox="0 0 41 41" fill="none" xmlns="http://www.w3.org/2000/svg">
<path d="M0.02555 24.1249L24.2791 0.114955C24.2791 0.114955 15.6685 -1.43055 7.41725 6.81215C-0.83395 15.0548 0.02555 24.1249 0.02555 24.1249Z" fill="black"/>
<path d="M3.19451 33.5283L33.6824 3.30635C33.6824 3.30635 22.8687 1.35202 12.4768 11.7335C2.085 22.1149 3.19451 33.5283 3.19451 33.5283Z" fill="black"/>
<path d="M16.9565 40.4323L40.3653 17.188C40.3653 17.188 41.802 25.5141 33.7596 33.434C25.7173 41.3539 16.9565 40.4323 16.9565 40.4323Z" fill="black"/>
<path d="M7.16846 37.5872L37.6374 7.32227C37.6374 7.32227 39.5124 18.1557 29.0436 28.4577C18.5748 38.7597 7.18408 37.5716 7.18408 37.5716L7.16846 37.5872Z" fill="black"/>
</svg>
