<svg width="29" height="35" viewBox="0 0 29 35" fill="none" xmlns="http://www.w3.org/2000/svg">
<path d="M20.7753 13.4863C20.8397 13.4848 20.8968 13.512 20.929 13.3999C20.9539 13.3166 21.068 13.2606 21.1427 13.1924C21.1661 13.1712 21.21 13.1485 21.21 13.1273C21.1997 12.9167 21.3197 12.8122 21.4793 12.7137C21.5583 12.6652 21.5949 12.5501 21.6622 12.4744C21.6915 12.4411 21.7456 12.4289 21.7968 12.4032L21.7968 12.1972L22.3837 11.6034L22.3925 11.4367C22.6866 11.1353 22.9603 10.8535 23.2559 10.5491C23.2193 10.3673 23.3657 10.2643 23.5179 10.1507C23.5954 10.0916 23.6393 9.9886 23.7037 9.90831C23.752 9.84923 23.8047 9.79319 23.8603 9.7432C23.9364 9.67503 24.0198 9.61595 24.0989 9.55082C24.1618 9.4978 24.1633 9.39782 24.2745 9.36753C24.3433 9.34935 24.3755 9.20544 24.4398 9.13425C24.5072 9.06002 24.5964 9.00549 24.674 8.94035C24.7325 8.89188 24.794 8.84341 24.8438 8.78584C24.9579 8.65406 25.0618 8.51318 25.176 8.38139C25.2243 8.32534 25.2872 8.28293 25.3443 8.23446L25.3238 8.19356L25.5448 8.18144C25.6823 8.03602 25.8082 7.90272 25.9604 7.74063L26.1697 7.73154L26.2062 7.58006C26.2897 7.58006 26.3775 7.58006 26.4638 7.58006C26.537 7.58006 26.6028 7.59218 26.6394 7.48312C26.6731 7.38314 27.0038 7.43313 27.0697 7.51796C27.1443 7.6149 27.2468 7.69064 27.3565 7.79365L27.3565 9.07669C27.1648 9.08274 27.2146 9.22968 27.2116 9.34784C27.2087 9.44933 27.2512 9.58263 27.0682 9.56445L27.0682 9.9886C26.8721 9.9886 26.9307 10.134 26.9248 10.2446C26.919 10.3506 26.9731 10.4915 26.7814 10.4779L26.7814 10.7354L26.6394 10.7839C26.6014 10.9005 26.6892 11.0686 26.4989 11.1126C26.4872 11.1156 26.4843 11.1807 26.4872 11.2156C26.4945 11.3201 26.4755 11.3989 26.3599 11.3852C26.2648 11.5337 26.4653 11.7791 26.196 11.8548C26.1594 11.9563 26.2604 12.1199 26.0628 12.1563C26.0423 12.1608 26.0482 12.3138 26.0394 12.4123L25.9121 12.4562C25.8711 12.5592 25.9736 12.7304 25.7745 12.7531C25.7628 12.7531 25.7453 12.8092 25.7511 12.8334C25.7979 13.0137 25.6062 13.0561 25.5638 13.1848C25.5579 13.2015 25.5009 13.2 25.4628 13.2091L25.4496 13.4742L25.3252 13.5029C25.274 13.6135 25.3896 13.7892 25.1833 13.8301C25.1613 13.8347 25.1672 13.9877 25.1599 14.0816L25.0252 14.1225L25.0252 14.3709L24.9813 14.3527C24.9447 14.4103 24.876 14.4679 24.876 14.5239C24.876 14.7314 24.7047 14.7739 24.5833 14.9253L24.5716 15.1374L24.434 15.1844L24.434 15.4025C24.3359 15.4949 24.2511 15.5752 24.134 15.6858C24.1032 15.7448 24.2452 15.9509 23.9935 15.9281C24.0286 16.1614 23.9013 16.2735 23.7462 16.375C23.7154 16.3947 23.7169 16.4674 23.6979 16.5128C23.6701 16.5795 23.6379 16.6446 23.6086 16.7098L23.5559 16.6916L23.5559 16.9218L23.2705 17.1718C23.3262 17.3732 23.1579 17.4626 23.0261 17.5884C22.9705 17.6414 22.9735 17.758 22.9427 17.8656C22.7539 17.861 22.8374 18.0322 22.8169 18.1307L22.533 18.3897L22.533 18.5896L22.2403 18.8456C22.2681 19.0547 22.1276 19.1759 21.9461 19.2849L21.9344 19.5C21.8363 19.5894 21.7544 19.6636 21.6563 19.7515L21.6563 19.9424C21.5276 20.0772 21.3475 20.1393 21.3461 20.3665C21.3461 20.4347 21.2656 20.5104 21.2085 20.5665C21.1251 20.6483 21.0285 20.7149 20.9188 20.8028L20.9188 21.0088L20.6305 21.2648L20.6305 21.4511C20.4724 21.6041 20.3407 21.7313 20.1885 21.8783L20.1797 22.0616L19.8987 22.3297L19.8987 22.5024C19.7846 22.619 19.6968 22.7205 19.5972 22.8053C19.4919 22.8962 19.4626 23.0038 19.4392 23.1401C19.426 23.2158 19.2928 23.2704 19.2153 23.337C19.1538 23.3885 19.0821 23.434 19.0382 23.4976C18.9592 23.6157 18.8962 23.7475 18.8523 23.8869L18.4294 24.3171L18.4294 24.4746C18.3167 24.5867 18.226 24.6685 18.144 24.7594C18.0782 24.8321 18.0343 24.9654 17.9596 24.9836C17.8045 25.0215 17.8499 25.126 17.844 25.2184C17.8396 25.2729 17.8543 25.3305 17.8411 25.382C17.7884 25.5804 17.9772 25.6304 18.0489 25.7501C18.0972 25.8289 18.1865 25.8804 18.2787 25.9652L18.2787 26.1546C18.3899 26.2515 18.5011 26.3197 18.5699 26.4181C18.6401 26.5196 18.7645 26.5954 18.7353 26.768C18.7265 26.8241 18.8465 26.9089 18.9167 26.9695C18.9884 27.0316 19.088 27.068 19.1421 27.1407C19.227 27.2543 19.2826 27.3906 19.3265 27.53C19.4158 27.6118 19.5065 27.6936 19.5943 27.7769C19.6807 27.8602 19.7641 27.945 19.8504 28.0284C19.9031 28.0814 19.9616 28.1299 20.0099 28.1874C20.0729 28.2632 20.1256 28.348 20.1899 28.4222C20.2163 28.4525 20.2631 28.4767 20.3012 28.4783C20.4051 28.4828 20.5163 28.4631 20.4856 28.6388L20.7607 28.6388L20.7944 28.7903C20.8851 28.7903 20.9714 28.7888 21.0592 28.7903C21.1295 28.7918 21.2158 28.76 21.2275 28.8888C21.229 28.9085 21.311 28.9312 21.3578 28.9327C21.4485 28.9388 21.551 28.916 21.51 29.0796L21.7705 29.0918L21.7559 29.1342C21.9871 29.2735 22.2081 29.4371 22.5154 29.3887L22.5534 29.5386L22.792 29.5523L22.7759 29.5977C22.8432 29.631 22.9076 29.6795 22.9793 29.6946C23.0481 29.7098 23.0964 29.7007 23.133 29.7946C23.152 29.8446 23.2925 29.8431 23.4008 29.8719L23.4388 29.9961L23.8252 29.9961L23.8076 30.0506C23.8779 30.0855 23.9481 30.1173 24.0154 30.1551C24.0623 30.1824 24.1018 30.2263 24.1515 30.246C24.232 30.2794 24.3184 30.299 24.3886 30.346C24.4486 30.3824 24.5072 30.4233 24.5686 30.4566C24.636 30.4914 24.7062 30.5202 24.775 30.552L24.7589 30.6066L25.1555 30.6066C25.1555 30.8398 25.3311 30.7247 25.4452 30.7656C25.4409 30.9777 25.6048 30.8822 25.7072 30.911L25.694 30.9595C25.7804 30.9943 25.8653 31.0277 25.9516 31.064C25.9853 31.0777 26.0292 31.0898 26.0467 31.117C26.1272 31.2413 26.237 31.2034 26.3453 31.1322C26.5297 31.011 26.4726 30.8474 26.496 30.6899C26.5033 30.6444 26.5707 30.6081 26.6292 30.5505C26.7009 30.4384 26.4989 30.1991 26.7814 30.1248L26.7814 29.731C27.0712 29.6643 26.8502 29.422 26.9775 29.2675C27.2014 29.2023 27.0068 28.966 27.0873 28.8161C27.3536 28.7479 27.1429 28.5101 27.2409 28.3889C27.2848 28.3374 27.3273 28.2828 27.3741 28.2344C27.3946 28.2117 27.4297 28.1829 27.4517 28.1874C27.4751 28.192 27.5029 28.2329 27.5058 28.2601C27.5131 28.345 27.5058 28.4298 27.5117 28.5146C27.5146 28.554 27.5307 28.6252 27.5453 28.6252C27.7107 28.6373 27.6565 28.763 27.6609 28.8539C27.6668 28.9751 27.6624 29.0963 27.6609 29.2175C27.6609 29.319 27.6419 29.4311 27.7824 29.3993C27.8746 29.6083 27.7019 29.8582 27.9405 30.0658L27.9405 30.5823L28.0941 30.6323L28.0941 31.1882C28.2302 31.1943 28.2566 31.2746 28.2478 31.3942C28.2375 31.52 28.2434 31.6487 28.2478 31.776C28.2492 31.8593 28.2141 31.9638 28.3502 31.9865C28.3678 31.9896 28.3839 32.0683 28.3853 32.1138C28.3897 32.2531 28.3868 32.3925 28.3868 32.5319L28.4439 32.5167C28.4761 32.6031 28.5185 32.6864 28.5361 32.7757C28.5522 32.8575 28.5273 32.9469 28.5434 33.0287C28.5566 33.0969 28.6005 33.1575 28.6297 33.2226L28.6824 33.206L28.6824 33.8922C28.9737 34.0451 28.7439 34.3208 28.8507 34.5208C29.0995 34.6056 28.9093 34.8268 29 34.9934C28.9224 34.9934 28.8683 35.0101 28.8522 34.9904C28.741 34.8571 28.6473 34.7056 28.5288 34.5799C28.4088 34.4541 28.261 34.3587 28.1351 34.239C28.0619 34.1694 28.0092 34.0785 27.9463 33.9982C27.898 33.9376 27.8541 33.874 27.7985 33.8225C27.7224 33.7528 27.6214 33.7089 27.5629 33.6286C27.5131 33.5619 27.5102 33.4574 27.4941 33.3998C27.3917 33.2847 27.3038 33.1847 27.2146 33.0848C27.1634 33.0272 27.118 32.9636 27.0609 32.9136C26.9307 32.7954 26.7887 32.6879 26.6628 32.5652C26.5941 32.4985 26.5502 32.4031 26.4843 32.3319C26.455 32.3001 26.3965 32.2971 26.3526 32.2789C26.2838 32.2486 26.2165 32.2153 26.158 32.1592C26.0716 32.0926 25.9106 32.1895 25.877 31.9956C25.8755 31.9835 25.8126 31.979 25.7789 31.9774C25.6809 31.9774 25.5726 31.9926 25.6033 31.8502C25.5009 31.7639 25.3033 31.929 25.3048 31.6745L25.0457 31.6624C25.0384 31.4488 24.873 31.5442 24.7662 31.5169C24.6901 31.2473 24.4691 31.4336 24.3125 31.3458L24.2759 31.2276C24.1691 31.1837 24.0125 31.2837 23.9701 31.0913C23.9671 31.0761 23.8954 31.0671 23.8574 31.0701C23.7549 31.0777 23.6803 31.0549 23.6964 30.9186L23.433 30.9065C23.433 30.6808 23.2647 30.7838 23.1579 30.755L23.171 30.7065C23.0964 30.6762 23.0203 30.649 22.9486 30.6126C22.89 30.5823 22.8388 30.5414 22.7964 30.4626L22.5578 30.4626C22.552 30.3339 22.4905 30.293 22.369 30.299C22.2622 30.3051 22.1261 30.3627 22.0646 30.1809C22.0529 30.1461 21.9139 30.1567 21.8334 30.1476L21.8495 30.0991C21.7778 30.0658 21.7061 30.037 21.6373 30.0006C21.5788 29.9688 21.5246 29.9294 21.4676 29.8931L21.4851 29.8522L21.2466 29.8522C21.229 29.6265 21.0549 29.7325 20.9349 29.6946L20.9085 29.5659C20.7944 29.5295 20.6348 29.6159 20.5968 29.4129C20.5939 29.3932 20.4548 29.4038 20.3802 29.3947C20.3026 29.3856 20.209 29.4341 20.1724 29.2932C20.1621 29.2538 20.0202 29.2508 19.9529 29.1917C19.8812 29.1584 19.8094 29.1281 19.7392 29.0933C19.6821 29.0645 19.6251 29.0327 19.5694 29.0024L19.5841 28.9494L19.3324 28.9372L19.2928 28.7979L19.0411 28.7979L19.0104 28.6464L18.7484 28.6464C18.7484 28.4813 18.6445 28.4873 18.5333 28.4858C18.4294 28.4858 18.3006 28.5419 18.2567 28.3616C18.2494 28.3328 18.106 28.3404 18.0255 28.3313L18.043 28.2828C17.9757 28.251 17.9069 28.2192 17.8396 28.1844C17.7811 28.1541 17.724 28.1192 17.6655 28.0859L17.6845 28.0375L17.4284 28.0375C17.424 27.8117 17.2557 27.9117 17.1372 27.8769C17.1416 27.6542 16.963 27.7678 16.8679 27.7072C16.6396 27.5618 16.4274 27.377 16.1464 27.433L16.0235 27.2785C15.9971 27.3179 15.9766 27.3634 15.943 27.3937C15.8698 27.4603 15.7864 27.5164 15.7117 27.5815C15.6547 27.6315 15.6005 27.6845 15.5522 27.7421C15.4864 27.8178 15.4293 27.9011 15.3649 27.9784C15.3137 28.042 15.261 28.1056 15.201 28.1601C15.0737 28.2753 14.9332 28.3768 14.8117 28.4979C14.7327 28.5752 14.6771 28.6782 14.5951 28.7903L14.3829 28.8009C14.3024 28.8979 14.2336 28.9827 14.1458 29.0887L13.9249 29.0887L13.8795 29.2387C13.7756 29.2766 13.6205 29.1872 13.5824 29.3765C13.5795 29.3917 13.4961 29.3932 13.4507 29.3947C13.3161 29.3962 13.1829 29.3947 13.0878 29.3947C12.9619 29.2614 12.8609 29.1539 12.7351 29.0206C12.7351 28.7055 12.7307 28.348 12.7395 27.992C12.7395 27.945 12.8038 27.8996 12.8492 27.8617C12.9502 27.6769 12.7702 27.4164 13.016 27.2089L13.016 26.8559C13.0673 26.8347 13.1478 26.8226 13.1507 26.7968C13.1946 26.512 13.4492 26.2682 13.2765 25.9243L13.0775 25.9137L12.9282 25.7486L12.8858 25.7804L12.8858 25.9788C12.7614 26.1182 12.6853 26.2606 12.5697 26.3182C12.4263 26.3893 12.4599 26.4969 12.4321 26.6044C12.416 26.6666 12.3399 26.7135 12.2872 26.7635C12.2009 26.8483 12.1102 26.9301 12.0048 27.0286L12.0048 27.2028C11.8028 27.4073 11.6199 27.5921 11.4136 27.8011L11.4136 27.9966L11.3814 27.9753C11.295 28.0784 11.2101 28.1844 11.1223 28.2859C11.0682 28.3495 11.0184 28.448 10.9526 28.4616C10.7579 28.504 10.8545 28.6615 10.834 28.7206L10.2486 29.3084L10.2486 29.475C9.89887 29.834 9.57105 30.1688 9.22275 30.5263L9.22275 30.6929C9.11153 30.7989 9.02079 30.8838 8.93298 30.9701C8.85249 31.0504 8.77493 31.1337 8.69298 31.214C8.6359 31.27 8.56858 31.3185 8.51736 31.3791C8.45297 31.4564 8.40321 31.5472 8.33735 31.6245C8.28467 31.6866 8.21296 31.7154 8.15881 31.7957C8.06661 31.9335 7.89831 32.0153 7.77685 32.1365C7.7066 32.2062 7.66855 32.3107 7.60709 32.391C7.56172 32.4501 7.49294 32.4788 7.43879 32.5455C7.28951 32.7333 7.0817 32.8712 6.90755 33.0408C6.83584 33.1105 6.7934 33.209 6.73047 33.2908C6.68071 33.3544 6.62949 33.4483 6.5651 33.4635C6.41875 33.4968 6.38363 33.7755 6.20655 33.6392L5.788 34.0982L5.5919 34.0982C5.51726 34.2951 5.37384 34.392 5.15432 34.3996L5.16895 34.4511C5.09139 34.4829 5.01529 34.539 4.93773 34.542C4.62162 34.5526 4.30551 34.5466 4.01135 34.5466L3.80647 34.3208L3.80647 32.5925C3.95721 32.6046 3.9616 32.5016 3.95428 32.3864C3.94989 32.3077 3.94257 32.2274 3.95721 32.1501C3.97184 32.0759 4.01135 32.0062 4.06111 31.9411C4.16795 31.8123 3.97916 31.5866 4.23526 31.4882L4.23526 31.0913C4.46064 31.0822 4.36112 30.9004 4.39917 30.7717C4.52942 30.7777 4.54698 30.6929 4.54113 30.5763C4.53674 30.4611 4.49137 30.3187 4.6626 30.2688C4.67577 30.2642 4.67869 30.2021 4.67869 30.1673C4.67869 30.0627 4.66991 29.9582 4.82797 29.9976L4.82797 29.731L4.96261 29.6856C5.02114 29.5795 4.87773 29.3856 5.09724 29.3811C5.17627 29.2296 5.01383 29.0115 5.25823 28.9009L5.26993 28.6767L5.32408 28.6934C5.35481 28.6161 5.38847 28.5404 5.41628 28.4631C5.42652 28.4358 5.41921 28.3798 5.42799 28.3768C5.61824 28.3344 5.53336 28.1662 5.56994 28.045L5.70312 28.0147L5.71483 27.7496C5.93874 27.7496 5.82605 27.5648 5.86849 27.4512C6.07484 27.4346 5.96947 27.2604 6.00752 27.1392C6.21533 27.1407 6.12021 26.9635 6.14216 26.8847C6.24899 26.7877 6.33826 26.712 6.41875 26.6287C6.42461 26.6226 6.36753 26.5257 6.3529 26.5302C6.22558 26.562 6.04411 26.4166 5.97386 26.6499C5.96947 26.6666 5.89776 26.6666 5.85825 26.6681C5.7119 26.6696 5.56409 26.6605 5.41921 26.6726C5.35335 26.6787 5.29042 26.7287 5.22749 26.759L5.24505 26.8165L4.99188 26.8165L4.99188 26.5651L5.26115 26.3106L5.26115 26.1137C5.43238 25.997 5.59921 25.891 5.56409 25.6698L5.85239 25.4002L5.85239 25.1775C6.07484 25.1669 5.97679 25.0018 5.99581 24.9018L5.71629 24.6534L5.70605 24.4156L5.57287 24.3807C5.5275 24.2762 5.62263 24.1081 5.43384 24.0581C5.41043 24.052 5.42213 23.9036 5.41774 23.8021C5.53921 23.8263 5.66946 23.7127 5.73239 23.9126C5.7441 23.9505 5.89191 23.9429 5.95044 23.9535L6.18753 24.2459L6.53729 24.2459L6.73193 24.0263L6.74071 23.8096L7.00121 23.8096C7.06414 23.9142 6.93243 24.1217 7.17975 24.1171L7.17975 24.6943L7.45781 24.6943L7.47098 24.4504L7.7505 24.205L7.7505 23.9838L7.80758 23.999C7.83831 23.9232 7.86465 23.843 7.9027 23.7703C7.92758 23.7218 7.97295 23.6854 7.99783 23.6385C8.01832 23.6006 8.02271 23.5521 8.03295 23.5097C7.88953 23.484 7.831 23.2461 7.63343 23.3643L7.5983 23.2067C7.48415 23.1689 7.31293 23.2613 7.27634 23.0522C7.27342 23.0386 7.18707 23.0522 7.14463 23.0341C7.09926 23.0159 7.06414 22.9735 7.01877 22.9523C6.93975 22.9174 6.85779 22.8917 6.74657 22.8493L6.71144 22.7326C6.61339 22.7326 6.51388 22.7341 6.41583 22.7326C6.38217 22.7326 6.3207 22.725 6.31924 22.7144C6.29289 22.5084 6.13484 22.6084 6.01923 22.572L5.97532 22.4387L5.7441 22.4387L5.76751 22.3857C5.47043 22.2358 5.17481 22.0858 4.87773 21.9358L4.87773 21.9252C4.81041 21.8919 4.74162 21.8586 4.67577 21.8253C4.61723 21.795 4.55869 21.7616 4.50015 21.7313L4.51918 21.6813L4.26307 21.6813L4.22063 21.8253L3.97477 21.8253C3.97916 21.9828 3.88111 21.9828 3.76842 21.9873C3.66744 21.9904 3.53134 21.9192 3.48304 22.1055C3.47426 22.1373 3.33377 22.1312 3.24157 22.1434L3.20938 22.257C3.05864 22.3585 2.83034 22.1524 2.7557 22.4357L2.51569 22.4357C2.44252 22.722 2.21568 22.5084 2.05031 22.6251C2.02397 22.6569 1.98446 22.9311 1.88787 22.6069C1.88055 22.5811 1.80738 22.5781 1.77518 22.566C1.68298 22.4221 1.87909 22.1873 1.62444 22.1025C1.52786 21.9692 1.74445 21.7238 1.46493 21.6435L1.46493 21.2527C1.37907 21.2173 1.32785 21.0608 1.31126 20.7831L1.17662 20.7467C1.14882 20.6301 1.21614 20.4847 1.04491 20.4271C1.01418 20.4165 1.03028 20.2589 1.02589 20.1681C1.0215 20.0923 1.04052 20.0181 0.926372 19.9908C0.892712 19.9833 0.881005 19.8378 0.876614 19.7545C0.87076 19.6455 0.897103 19.5273 0.727341 19.5394L0.727341 19.1198L0.588312 19.0774L0.588312 18.6654C0.38489 18.6608 0.444892 18.5094 0.440502 18.3942C0.437575 18.2867 0.468308 18.1625 0.305863 18.1761C0.254642 18.067 0.358548 17.9004 0.163907 17.8625C0.144882 17.8595 0.146346 17.7171 0.147809 17.6383C0.149273 17.5247 0.15659 17.4126 -7.68702e-07 17.4142L-7.92671e-07 16.8658C0.133174 16.734 0.396598 16.9839 0.463917 16.6719C0.620508 16.6719 0.778562 16.6764 0.935153 16.6719C1.03028 16.6689 1.15321 16.7219 1.18541 16.5568C1.18833 16.5401 1.25711 16.531 1.29663 16.5295C1.43712 16.5265 1.57761 16.5295 1.72396 16.5295L1.77811 16.372C1.95958 16.372 2.13519 16.3659 2.30935 16.375C2.42057 16.3811 2.50252 16.3674 2.49521 16.2205C2.63862 16.2205 2.76595 16.2159 2.89473 16.2205C2.99864 16.225 3.09523 16.2281 3.08498 16.0736L3.75525 16.0736C3.90159 15.7797 4.15916 16.0024 4.32893 15.866C4.41234 15.8327 4.4943 15.7812 4.5821 15.7691C4.69625 15.7524 4.81626 15.7676 4.93334 15.7645C5.01383 15.7615 5.11627 15.8009 5.12944 15.6555C5.12944 15.6403 5.20847 15.6237 5.25091 15.6221C5.44262 15.6191 5.6358 15.6206 5.84215 15.6206C5.8319 15.4631 5.92117 15.454 6.03093 15.4616C6.1246 15.4691 6.21972 15.4722 6.31192 15.4585C6.35582 15.4525 6.39387 15.404 6.43485 15.3767C6.4729 15.3525 6.51388 15.3162 6.55485 15.3131C6.69535 15.3055 6.83584 15.3131 6.97633 15.3086C7.06121 15.3071 7.17244 15.351 7.18561 15.195C7.18561 15.1813 7.25439 15.1662 7.29244 15.1647C7.43293 15.1616 7.57343 15.1647 7.72416 15.1647L7.77246 15.0147L8.46614 15.0147L8.50419 14.8557C8.63005 14.8557 8.74712 14.8587 8.8642 14.8557C8.95054 14.8526 9.05884 14.895 9.08226 14.7436C9.08518 14.7269 9.1525 14.7133 9.19055 14.7117C9.31934 14.7072 9.44812 14.7148 9.57691 14.7087C9.67057 14.7042 9.79789 14.7602 9.82131 14.5875C9.82277 14.5709 9.89009 14.5572 9.92667 14.5542C10.0262 14.5497 10.1257 14.5512 10.2252 14.5542C10.3218 14.5542 10.4301 14.5739 10.3847 14.4027L10.8179 14.4027C10.8091 14.3497 10.8062 14.274 10.796 14.2725C10.6321 14.2573 10.6891 14.1301 10.6847 14.0407C10.6789 13.9195 10.6789 13.7983 10.6847 13.6771C10.6891 13.5666 10.6877 13.4681 10.5311 13.4832C10.5311 13.1712 10.5355 12.8743 10.5267 12.5789C10.5252 12.5183 10.474 12.4592 10.4462 12.4002L10.3891 12.4229L10.3891 11.1186L10.3306 11.1308C10.3013 11.0474 10.2472 10.9641 10.2472 10.8808C10.2413 9.94164 10.2428 9.00398 10.2428 8.10267L10.0247 7.89666L9.81984 7.88757C9.81399 7.65732 9.63837 7.77244 9.56373 7.74366L9.3208 7.4407L9.11884 7.4407L8.87444 7.13168L8.63883 7.13168L8.63883 6.83933L9.04567 6.83933C9.05445 6.69542 9.12762 6.65906 9.2447 6.6727C9.33104 6.6833 9.42032 6.67421 9.50812 6.67421C9.53739 6.67421 9.58422 6.6833 9.593 6.66815C9.75399 6.40306 10.0145 6.59241 10.2281 6.50607L10.2633 6.37579L10.6057 6.37579C10.6833 6.3046 10.7404 6.26673 10.7769 6.2122C10.7989 6.18039 10.7887 6.12585 10.793 6.08041C10.6247 6.07284 10.6965 5.93953 10.6833 5.85167C10.6687 5.75473 10.7301 5.62294 10.5633 5.60022C10.5486 5.5987 10.5325 5.52902 10.5325 5.49115C10.5296 5.34573 10.5325 5.20031 10.5325 5.04126C10.373 5.02914 10.3803 4.91099 10.3847 4.7898C10.3891 4.66862 10.3847 4.54895 10.3847 4.42776L10.3291 4.4414C10.3013 4.37172 10.2647 4.30506 10.2457 4.23387C10.2164 4.12329 10.3189 3.95818 10.1155 3.9203C10.1038 3.91879 10.0994 3.84305 10.0979 3.80215C10.0964 3.66279 10.0979 3.52343 10.0979 3.37346L9.9457 3.32347C9.9457 3.22804 9.95594 3.13109 9.94131 3.03718C9.93399 2.98567 9.88423 2.94023 9.85936 2.89024C9.8374 2.84631 9.8096 2.80087 9.80813 2.75391C9.80082 2.61 9.80521 2.46458 9.80521 2.32976C9.50081 2.17677 9.74667 1.89653 9.61642 1.69809C9.37934 1.63296 9.57398 1.40119 9.47446 1.23608L9.3647 1.19215L9.3647 0.64682C9.08372 0.574108 9.29446 0.336284 9.19202 0.216617L9.07201 0.0605923L9.29299 -4.0621e-07L9.50373 0.240852L9.51251 0.452926C9.72179 0.455955 9.63252 0.622581 9.6574 0.728618C9.79935 0.828594 9.93399 0.916454 9.96033 1.13307C9.97204 1.23608 10.1228 1.32242 10.2413 1.44815L10.2413 1.65568L10.3818 1.69203L10.3818 1.93289C10.5384 2.0677 10.7418 2.1495 10.7287 2.39339C10.7608 2.45852 10.8048 2.52214 10.8194 2.59182C10.8355 2.6615 10.8194 2.71755 10.9189 2.74936C10.9891 2.77057 11.0345 2.87358 11.1165 2.97052C11.1311 3.16442 11.2321 3.32499 11.4018 3.3674L11.415 3.6128L11.4414 3.59765C11.4809 3.65521 11.5438 3.70672 11.557 3.77034C11.5833 3.90213 11.7121 4.08693 11.8511 4.13844L11.8511 4.37929L12.0004 4.42776L12.0004 4.68073C12.1892 4.76102 12.2829 4.90795 12.2916 5.11397C12.3736 5.18668 12.4614 5.2397 12.5141 5.31847C12.5668 5.39724 12.5829 5.50024 12.6253 5.62294C12.8082 5.62294 13.0175 5.63051 13.2268 5.61688C13.2751 5.61385 13.3175 5.5366 13.3922 5.46691L13.8824 5.46691L13.9132 5.31847L14.4663 5.31847L14.5073 5.17305L14.9098 5.17305C14.901 5.02308 14.9873 5.00945 15.0971 5.01853C15.1908 5.02611 15.2844 5.01248 15.3781 5.02157C15.4878 5.03368 15.5303 4.98824 15.5156 4.86251C15.6415 4.86251 15.7571 4.86706 15.8727 4.86251C15.962 4.85797 16.0805 4.9125 16.1083 4.75042C16.1113 4.73375 16.1786 4.72163 16.2166 4.72012C16.3103 4.71557 16.404 4.71254 16.4976 4.72012C16.6089 4.72921 16.6952 4.71103 16.6923 4.56864L16.9572 4.56864C16.9454 4.68679 17.0479 4.81555 16.862 4.88978C16.8211 4.90644 16.8284 5.05337 16.8152 5.1276L16.5327 5.37148L16.5327 5.56538C16.4684 5.629 16.4303 5.67141 16.3879 5.70777C16.3484 5.74261 16.3045 5.7729 16.2474 5.81835L16.2386 6.03042L15.9547 6.27279L15.9444 6.48486L15.6503 6.73481L15.6503 6.94536L15.3634 7.19227L15.3634 7.40435C15.1922 7.52401 15.0122 7.61945 15.0693 7.84667L14.7766 8.09207L14.7766 8.29656L14.4927 8.54802L14.4927 8.93581L14.6288 8.96914L14.6288 9.20544L14.8995 9.44327C14.9771 9.52204 14.8073 9.73714 15.0693 9.72199C15.0254 9.97648 15.1981 10.0825 15.3649 10.2294L15.3649 10.4143L15.6488 10.6793L15.6591 10.902C15.8757 10.899 15.7747 11.0793 15.8083 11.1883L15.9035 11.0899L16.0835 11.2701L15.9854 11.3777L16.1874 11.3777L16.3849 11.158C16.3498 10.9778 16.5152 10.896 16.6235 10.7611C16.7581 10.593 17.0347 10.5082 16.9806 10.2507C17.0903 10.1219 17.1811 10.0174 17.2718 9.91286C17.3201 9.85529 17.364 9.79319 17.4181 9.7432C17.5425 9.62656 17.6713 9.51749 17.7972 9.40388C17.8133 9.38873 17.8455 9.3645 17.8411 9.35693C17.7708 9.17212 17.9596 9.11153 18.0152 8.98731C18.0518 8.90703 18.1689 8.86462 18.2479 8.80402C18.3079 8.75858 18.3123 8.67981 18.3987 8.62982C18.5377 8.54953 18.6182 8.36624 18.7353 8.239C18.807 8.16175 18.9036 8.10873 18.9855 8.03905C19.0426 7.99057 19.0353 7.89666 19.1465 7.87091C19.2182 7.85424 19.2592 7.70882 19.3207 7.62854C19.366 7.57097 19.4216 7.52099 19.4772 7.47251C19.6075 7.35739 19.7465 7.24984 19.8709 7.12714C19.9412 7.05746 19.9851 6.95899 20.048 6.88174C20.1065 6.81054 20.1782 6.74995 20.2426 6.6833C20.3231 6.6015 20.4021 6.51667 20.4856 6.43639C20.5631 6.36216 20.6465 6.29703 20.7226 6.2228C20.7914 6.15766 20.8544 6.08495 20.9202 6.01527C20.9466 5.98649 20.9758 5.95923 20.9963 5.9259C21.1119 5.73958 21.3549 5.76382 21.4836 5.60628C21.5115 5.57295 21.5173 5.52145 21.5363 5.46994L21.7441 5.46994C21.8305 5.36542 21.9037 5.27454 21.99 5.17001L22.2154 5.17001C22.2183 5.02005 22.312 5.01247 22.4261 5.0155C22.6603 5.02156 22.8944 5.01702 23.1286 5.01702C23.1974 5.01702 23.2413 5.02005 23.2822 5.11397C23.3247 5.21092 23.4462 5.26999 23.5501 5.35936L23.5501 6.78631C23.2881 6.94688 23.4886 7.20591 23.3891 7.41192C23.1388 7.47706 23.3335 7.71791 23.2457 7.87999C23.1271 7.87393 23.1096 7.95876 23.1139 8.0754C23.1183 8.19053 23.1637 8.3314 22.9939 8.38594C22.9749 8.392 22.9778 8.48591 22.9764 8.54045C22.9735 8.61922 22.9764 8.69647 22.9764 8.79039C22.7437 8.7813 22.8535 8.96459 22.8095 9.08275C22.6266 9.08881 22.6837 9.23725 22.6778 9.35389C22.672 9.45387 22.7217 9.58869 22.5403 9.57203L22.5403 9.83257L22.391 9.88407L22.391 10.1461C22.2622 10.1567 22.2183 10.2294 22.2373 10.3521C22.2417 10.3855 22.2286 10.4491 22.2168 10.4521C22.0281 10.4809 22.1305 10.643 22.0851 10.7505L21.9637 10.7839C21.9051 10.8854 22.0412 11.0883 21.8159 11.0944C21.7705 11.208 21.8832 11.3898 21.6637 11.4004L21.6637 11.6534L21.5144 11.7018L21.5144 11.9563L21.4632 11.9381C21.4295 12.0109 21.3988 12.0836 21.3622 12.1532C21.3358 12.2017 21.2934 12.2426 21.2744 12.2941C21.2422 12.3774 21.2232 12.4668 21.169 12.5395C21.1368 12.6077 21.1046 12.6759 21.071 12.744C21.0388 12.8092 21.0066 12.8743 20.9553 12.9319C20.8836 13.0227 21.0285 13.2197 20.787 13.2121C20.787 13.3181 20.787 13.4075 20.787 13.4984C20.7387 13.5014 20.6905 13.5044 20.6378 13.5075C20.6378 13.5878 20.629 13.6499 20.6407 13.7059C20.648 13.7408 20.6861 13.7695 20.7095 13.8014C20.7344 13.7711 20.7739 13.7423 20.7797 13.7074C20.79 13.6378 20.7812 13.565 20.7812 13.4923L20.7753 13.4863ZM25.0194 11.5761C25.1848 11.4473 25.3545 11.3459 25.3062 11.0914C25.5389 11.0853 25.4204 10.8914 25.4687 10.7793L25.5989 10.7445L25.5638 10.7202C25.6589 10.5127 25.754 10.3037 25.8506 10.0961L25.9004 10.1174L25.9004 9.87499L26.0497 9.83106L26.0497 9.42358L26.1009 9.44175C26.1301 9.38116 26.1594 9.32057 26.1872 9.25846C26.2194 9.18878 26.2501 9.1191 26.2823 9.04942L26.3277 9.06608L26.3423 8.81765L26.4024 8.83583C26.4302 8.7707 26.4697 8.7101 26.4843 8.64194C26.5048 8.54953 26.4799 8.38745 26.5194 8.3723C26.7024 8.29959 26.6028 8.16629 26.6204 8.05723C26.3687 8.01481 26.3672 8.01481 26.3043 8.18295L26.0628 8.19507L26.0848 8.22537C25.8609 8.45865 25.637 8.69344 25.3984 8.94187L25.1847 8.95096L25.2082 8.98277L24.2876 9.92952L24.2876 10.137C24.2364 10.1583 24.1867 10.1673 24.1559 10.1961C24.0623 10.284 23.954 10.3673 23.891 10.4764C23.8413 10.5627 23.7725 10.6066 23.7081 10.6672C23.6364 10.7339 23.5954 10.8823 23.5237 10.8944C23.4052 10.9157 23.4403 11.0293 23.3803 11.0596C23.1988 11.1504 23.0774 11.2731 23.1066 11.4625C22.8593 11.7155 22.631 11.9472 22.3866 12.1972L22.3866 12.3638C22.1832 12.5683 22.0017 12.7501 21.8012 12.9515L21.7924 13.1409C21.6432 13.2833 21.51 13.409 21.368 13.5438C21.4002 13.8635 21.0827 13.9347 20.9158 14.1301L20.9158 14.4103C20.7226 14.2982 20.8148 14.5118 20.7344 14.5512C20.6451 14.5966 20.5324 14.6618 20.5002 14.7466C20.4563 14.8617 20.4782 14.992 20.3436 15.0753C20.2368 15.1419 20.1578 15.2571 20.0407 15.3767L20.0407 15.5752C19.8724 15.6949 19.7026 15.7994 19.7407 15.9933C19.6587 16.0902 19.6148 16.1599 19.5563 16.2084C19.4202 16.3205 19.2592 16.4114 19.3031 16.6098C19.2036 16.7067 19.1202 16.787 19.0206 16.884L19.0206 17.09C18.968 17.1203 18.9065 17.1354 18.8816 17.1763C18.8128 17.2869 18.6679 17.3611 18.7162 17.5308C18.7192 17.5399 18.6972 17.5671 18.6855 17.5687C18.5582 17.5808 18.586 17.6808 18.5845 17.7595C18.5831 17.9049 18.5831 18.0504 18.5845 18.1958C18.5845 18.2367 18.5889 18.3094 18.605 18.3139C18.7879 18.3624 18.7118 18.5124 18.7221 18.6245C18.7309 18.7199 18.7236 18.8169 18.7236 18.9396C18.9094 18.8926 18.8758 19.0198 18.8758 19.1228C18.8758 19.2561 18.8758 19.3895 18.8758 19.5273L19.025 19.5773L19.025 20.2771L19.0572 20.2574L19.1802 20.4301C18.9855 20.5104 18.886 20.4422 18.8128 20.3074C18.6445 20.3862 18.5831 20.2029 18.4777 20.1438C18.3796 20.0878 18.3211 19.9575 18.2348 19.8484L18.0372 19.8484C17.9655 19.7575 17.9157 19.6591 17.8367 19.6015C17.7152 19.5106 17.6377 19.3001 17.4445 19.4304L17.2616 19.6258L17.2616 19.8333L17.1167 19.8696L17.1167 20.1241C16.9264 20.2241 16.783 20.3453 16.824 20.5922L16.6718 20.6376L16.6718 20.8512L16.3849 21.1269L16.3849 21.3405C16.2981 21.3718 16.2459 21.4748 16.2284 21.6495C16.1874 21.6617 16.1347 21.6617 16.1054 21.6889C16.0762 21.7162 16.0791 21.7813 16.0483 21.8086C15.9679 21.8828 15.8918 22.2146 15.9664 22.2403C16.1435 22.3009 16.0644 22.4433 16.101 22.5554L16.2298 22.5978C16.262 22.722 16.1683 22.8947 16.3879 22.9038C16.341 23.1583 16.5093 23.2598 16.6747 23.3885L16.6747 23.6173C16.9147 23.6051 16.7815 23.8187 16.8489 23.9232L17.1094 23.9232L17.1255 23.6642C17.1737 23.64 17.2294 23.6279 17.2586 23.593C17.323 23.5158 17.3655 23.4158 17.4342 23.3461C17.5089 23.2704 17.6069 23.2219 17.6904 23.1537C17.844 23.028 17.8104 22.7796 17.9918 22.6614C18.0709 22.6099 18.1104 22.4948 18.1865 22.4342C18.327 22.3236 18.4733 22.2267 18.4353 22.0358C18.5845 21.8858 18.7206 21.7495 18.8772 21.592L18.8772 21.3935C19.028 21.186 19.3631 21.1254 19.3192 20.8331C19.4011 20.7361 19.4465 20.6649 19.5065 20.6134C19.6397 20.4998 19.8051 20.4119 19.7597 20.212C19.8592 20.115 19.9441 20.0348 20.0436 19.9393L20.0436 19.756C20.1534 19.6561 20.2499 19.5788 20.3334 19.4894C20.3904 19.4288 20.4695 19.3531 20.4709 19.2834C20.4768 19.0653 20.6422 19.0062 20.7812 18.8956L20.7812 18.6926C20.9422 18.5381 21.1134 18.4366 21.0783 18.2321C21.2261 18.0867 21.3549 17.9625 21.51 17.8095L21.51 17.6308L21.7998 17.3717L21.7998 17.1324L21.9388 17.1021L21.9505 16.8431C22.0661 16.7658 22.2125 16.6749 22.2242 16.5674C22.2476 16.3462 22.3998 16.2781 22.5388 16.1584L22.5388 15.966C22.6398 15.8691 22.7247 15.7888 22.8198 15.6994L22.8286 15.5116L23.1125 15.254C23.1447 15.1647 23.0393 14.9799 23.2764 14.9844C23.2105 14.7193 23.4066 14.633 23.5515 14.5057L23.5618 14.2649C23.6427 14.2447 23.6935 14.1467 23.714 13.971C23.8881 13.8635 24.0403 13.7483 23.9964 13.5075L24.1413 13.459C24.1472 13.2914 24.1954 13.1919 24.2862 13.1606L24.2964 12.9364C24.3945 12.844 24.475 12.7667 24.5833 12.6637C24.6081 12.5986 24.494 12.4092 24.7194 12.4168C24.7516 12.2926 24.674 12.129 24.8584 12.0836C24.8686 12.0805 24.8745 12.026 24.8701 11.9987C24.8511 11.8776 24.8921 11.8033 25.0223 11.8033L25.0223 11.5731L25.0194 11.5761ZM17.5513 13.0591L17.5513 13.7695L17.7035 13.8286C17.7035 13.9786 17.6991 14.124 17.7064 14.2694C17.7094 14.3134 17.7416 14.3558 17.765 14.3982C17.7884 14.4421 17.8382 14.4815 17.8411 14.5254C17.8499 14.6799 17.8455 14.836 17.8455 14.9965L18.1352 14.9965C18.1426 14.8981 18.1352 14.7451 18.1587 14.7405C18.3635 14.6981 18.2523 14.5254 18.286 14.4467L18.5596 14.221C18.6445 13.9256 18.7279 13.6302 19.0265 13.4454L19.0265 13.203C19.2767 13.2091 19.1055 12.997 19.1948 12.9243C19.2767 12.8455 19.3587 12.7683 19.4553 12.6759C19.466 12.5304 19.5129 12.4416 19.5958 12.4092L19.609 12.1593C19.6836 12.1169 19.7231 12.0593 19.7538 11.9987C19.7904 11.926 19.8182 11.8488 19.8504 11.773L19.9046 11.7897L19.9046 11.5791C20.0026 11.4898 20.0846 11.4155 20.1826 11.3262L20.1958 11.1005L20.2426 11.1202C20.2748 11.0535 20.3085 10.9868 20.3392 10.9202C20.37 10.8551 20.3992 10.7884 20.43 10.7218L20.4695 10.7369C20.509 10.6309 20.4022 10.4461 20.6173 10.4506C20.6583 10.3294 20.5558 10.1492 20.7783 10.1477L20.7783 9.87347L20.9188 9.84015L20.9188 9.569C21.1734 9.58566 21.0124 9.37359 21.1017 9.29027C21.1529 9.2312 21.1851 9.16606 21.2158 9.10092C21.2466 9.03579 21.2773 8.96913 21.308 8.90248C21.3827 8.81008 21.2802 8.62679 21.4939 8.63133C21.5378 8.51166 21.4295 8.32837 21.6549 8.32989L21.6549 8.05723L21.7954 8.0239L21.7954 7.76487L21.851 7.78153C21.8802 7.71791 21.911 7.65277 21.9388 7.58915C21.9607 7.54068 21.9783 7.49069 22.0017 7.44373C22.0281 7.39374 22.0646 7.35133 22.0895 7.29982C22.1232 7.23014 22.1495 7.15592 22.1803 7.08472C22.2959 6.95142 22.1071 6.71057 22.3764 6.64089C22.4056 6.52576 22.3134 6.3561 22.53 6.36216L22.53 5.95922C22.8008 5.85773 22.6076 5.6396 22.6778 5.49267L22.6237 5.4548L22.4715 5.61839C22.2725 5.63506 22.1349 5.72898 22.0559 5.92893L21.8612 5.92893L21.4515 6.36519C21.3929 6.3758 21.2846 6.36519 21.2319 6.41366C21.1061 6.53333 21.027 6.71814 20.888 6.80903C20.8075 6.86205 20.7958 6.93627 20.7373 6.98323C20.6583 7.04685 20.5587 7.08624 20.4914 7.15895C20.3743 7.28468 20.2953 7.45888 20.1621 7.55431C20.0846 7.61036 20.0568 7.68458 19.9968 7.73912C19.9221 7.80577 19.8358 7.85878 19.7597 7.92392C19.7026 7.9724 19.6499 8.02996 19.6031 8.08904C19.5416 8.16781 19.4948 8.26021 19.4289 8.33443C19.3748 8.39654 19.3002 8.43895 19.2387 8.495C19.1641 8.56317 19.0894 8.63285 19.0221 8.70707C18.9548 8.7813 18.9094 8.88734 18.8304 8.93884C18.6694 9.04185 18.5494 9.15546 18.5728 9.33875C18.2304 9.69018 17.904 10.0265 17.5542 10.387L17.5425 10.5991C17.4899 10.6203 17.4372 10.6263 17.4108 10.6566C17.2996 10.7869 17.2235 10.9808 17.0859 11.049C16.8093 11.1853 17.0391 11.2035 17.1006 11.2671C17.2074 11.4489 16.9747 11.72 17.263 11.8715C17.263 11.9957 17.2542 12.1351 17.2674 12.2729C17.2747 12.3441 17.3201 12.4108 17.3479 12.4804L17.4035 12.4668L17.4035 13.0167L17.5499 13.0652L17.5513 13.0591ZM9.90326 23.4855L9.90326 23.5461C9.96619 23.5764 10.0277 23.6218 10.0935 23.6354C10.1784 23.6506 10.2677 23.6385 10.3569 23.6385L10.4023 23.7869C10.5223 23.8127 10.6687 23.746 10.7111 23.9248C10.714 23.9369 10.7667 23.9308 10.7916 23.9414C10.8706 23.9748 10.9496 24.0126 11.0272 24.049L11.0126 24.0944L11.2438 24.105L11.2745 24.2504L11.5321 24.2504L11.5833 24.3913L11.7897 24.3913L12.1394 24.0263L12.1394 23.8172L12.1833 23.8384C12.2258 23.7748 12.255 23.6869 12.3136 23.6536C12.4877 23.5567 12.6077 23.4355 12.5858 23.2658C12.7512 23.025 13.06 22.9432 13.0219 22.6236C13.1258 22.5327 13.2326 22.4645 13.3073 22.3706C13.3863 22.2706 13.4375 22.1449 13.5005 22.0313C13.5605 21.9419 13.6541 21.8737 13.739 21.7965C13.7566 21.7798 13.7595 21.7101 13.7434 21.6965C13.6541 21.6208 13.5561 21.5556 13.4844 21.5026C13.4536 21.3935 13.4346 21.3042 13.4024 21.2193C13.3834 21.1678 13.3409 21.1269 13.3146 21.0769C13.278 21.0088 13.2473 20.9361 13.2151 20.8649L13.1668 20.8815L13.1565 20.6558C12.978 20.5286 12.8302 20.4135 12.8697 20.1726C12.637 20.165 12.7702 19.9696 12.697 19.8909L12.5068 19.7091L12.1804 19.7091C12.0194 19.9848 11.7589 19.7666 11.5804 19.8924C11.3682 20.1075 11.0799 19.9363 10.8516 20.0151C10.8223 20.0666 10.8077 20.1241 10.7711 20.1514C10.6233 20.262 10.4769 20.368 10.5223 20.5665L10.2384 20.8134L10.2384 20.9921C10.1213 21.1178 9.96619 21.2072 9.95741 21.3102C9.93838 21.5344 9.79057 21.6056 9.65886 21.7041C9.65008 21.7919 9.65154 21.9449 9.63106 21.9479C9.42178 21.9828 9.54178 22.1646 9.473 22.2494L9.2125 22.4918L9.2125 22.6963C9.05006 22.7599 9.01494 22.9174 9.09982 23.184L9.33983 23.1946L9.38519 23.3325C9.50227 23.3613 9.66032 23.2673 9.66764 23.484L9.90326 23.484L9.90326 23.4855ZM7.74611 26.9529L7.89392 26.9983L7.89392 27.5436C8.04466 27.6042 8.03881 27.6042 8.04759 27.7618C8.05198 27.8511 8.071 27.9405 8.09735 28.0268C8.11491 28.0829 8.1793 28.1283 8.18223 28.1814C8.19247 28.3798 8.18662 28.5782 8.18662 28.7767L8.23637 28.81C8.2715 28.7767 8.30662 28.7464 8.33882 28.7115C8.35638 28.6934 8.36662 28.6646 8.38565 28.6479C8.46321 28.5767 8.54956 28.5116 8.62273 28.4343C8.69298 28.3601 8.73688 28.2495 8.81737 28.195C8.97396 28.089 9.10274 27.9814 9.07055 27.7784C9.17299 27.6951 9.26958 27.6239 9.35739 27.5436C9.413 27.4921 9.4569 27.427 9.50373 27.3679C9.56813 27.2876 9.61642 27.1861 9.69691 27.1331C9.8535 27.0286 9.97936 26.9195 9.95155 26.7393L10.5252 26.15L10.534 25.9834L11.1238 25.3881L11.1238 25.1972C11.1794 25.1608 11.2248 25.1412 11.2555 25.1063C11.2672 25.0942 11.2482 25.0381 11.2292 25.0154C11.1823 24.9639 11.1253 24.9215 11.0418 24.8473C10.9774 24.8352 10.834 24.8973 10.7887 24.7216C10.7857 24.7079 10.7213 24.717 10.6906 24.7034C10.6218 24.6746 10.5545 24.6382 10.4872 24.6049C10.3643 24.4762 10.1286 24.6897 10.0642 24.3928L9.82277 24.3928C9.80813 24.1626 9.63398 24.2823 9.5213 24.2368L9.48032 24.0944L9.24616 24.0944L9.26226 24.0414C9.19348 24.0081 9.1247 23.9763 9.05738 23.9399C9.00908 23.9126 8.96811 23.8566 8.91981 23.8505C8.77932 23.8324 8.63444 23.8187 8.49541 23.8354C8.44419 23.8415 8.40467 23.9414 8.33882 24.0247L8.33882 24.2292L8.18954 24.2747C8.23052 24.5246 8.06954 24.6307 7.90417 24.7397C7.86612 24.8412 7.97588 25.026 7.75636 25.023L7.75636 25.2396L7.96271 25.4532C8.0871 25.3896 8.16906 25.4941 8.25394 25.6107C8.32418 25.7077 8.47638 25.741 8.48663 25.897C8.36223 25.9485 8.1793 25.8319 8.16905 26.0682L7.77831 26.0682C7.75343 26.1212 7.7388 26.1697 7.70953 26.2076C7.68319 26.2424 7.64367 26.2651 7.61001 26.2924L7.74904 26.4181L7.74904 26.9529L7.74611 26.9529ZM6.72608 27.2588C6.49924 27.2573 6.61193 27.4421 6.58559 27.5118C6.41436 27.6648 6.24021 27.7708 6.28411 28.0132L6.14216 28.0511C6.1246 28.1829 6.19923 28.3525 5.99727 28.3662C5.99142 28.5368 5.94215 28.6393 5.84947 28.6737L5.84947 28.9236L5.70458 28.9569L5.70458 29.3735C5.57141 29.3826 5.53336 29.4598 5.55092 29.5795C5.55531 29.6128 5.54506 29.6795 5.53628 29.681C5.34018 29.7083 5.44555 29.8794 5.38408 29.9658C5.33286 30.0082 5.29042 30.0582 5.26262 30.1142C5.2231 30.193 5.1953 30.2778 5.1631 30.3596L5.10895 30.346L5.10895 30.7459C4.86748 30.7535 5.02846 30.9534 4.9509 31.0534C4.81187 31.0458 4.8265 31.1549 4.82797 31.2609C4.82797 31.3836 4.88212 31.5366 4.6904 31.5442C4.65382 31.6578 4.73284 31.7987 4.56015 31.8502C4.50893 31.8654 4.53674 31.9714 4.6304 31.9729C4.74016 31.9744 4.84992 31.9729 4.92017 31.9729L5.16895 31.6609L5.36652 31.6609L5.60507 31.373L5.8319 31.3594C5.85093 31.3049 5.85532 31.2488 5.88459 31.2216C6.01337 31.1034 6.15533 31.0019 6.27972 30.8792C6.34851 30.8126 6.38509 30.7126 6.44656 30.6368C6.50071 30.5702 6.57095 30.5172 6.63388 30.4596C6.71291 30.3884 6.79779 30.3233 6.86804 30.246C6.93389 30.1748 6.9778 30.0809 7.04658 30.0112C7.11536 29.9431 7.20463 29.8991 7.27927 29.837C7.34513 29.781 7.40513 29.7158 7.45928 29.6477C7.52367 29.5689 7.56904 29.472 7.64075 29.4023C7.76514 29.2811 7.90563 29.1766 8.03734 29.0615C8.08271 29.0221 8.13247 28.9781 8.15588 28.9251C8.17052 28.8918 8.1471 28.8327 8.12808 28.7918C8.11198 28.757 8.05198 28.7282 8.05344 28.7024C8.07393 28.4692 7.88661 28.404 7.75051 28.2889L7.75051 28.0481C7.6705 28.0258 7.62026 27.9375 7.59977 27.783L7.30854 27.5073C7.2822 27.4406 7.38025 27.28 7.19146 27.2498C7.17975 27.2482 7.16658 27.1846 7.17097 27.1513C7.18707 27.0316 7.15341 26.9544 7.02755 26.9574C7.01194 26.7675 6.96023 26.6802 6.87243 26.6953L6.87243 26.9513L6.72754 26.9998L6.72754 27.2558L6.72608 27.2588ZM7.61733 22.4069C7.71977 22.4327 7.86905 22.4387 7.87783 22.4781C7.90563 22.6008 7.97734 22.572 8.04759 22.5781C8.0871 22.5811 8.16027 22.5811 8.16174 22.5948C8.19979 22.8053 8.35052 22.7084 8.41638 22.719L8.77347 22.3615L8.77347 22.1585C8.96079 22.054 9.10714 21.9358 9.06616 21.6919L9.21836 21.6435L9.21836 21.4299L9.5052 21.1572L9.5052 20.9588L9.79643 20.7119C9.81984 20.621 9.74667 20.4695 9.92229 20.4392C9.90326 20.3953 9.89155 20.3211 9.86375 20.3135C9.74228 20.2817 9.63691 20.3074 9.61935 20.4634C9.57691 20.4634 9.54618 20.4559 9.51983 20.4634C9.35739 20.5134 9.13348 20.3332 9.02518 20.6043C9.01786 20.621 8.94762 20.6134 8.9081 20.6134C8.72664 20.6134 8.54663 20.6134 8.36516 20.6134L8.37833 20.6695C8.31101 20.6998 8.24515 20.7482 8.17491 20.7558C8.04173 20.7694 7.9071 20.7603 7.75782 20.7603C7.77538 20.9209 7.67879 20.9179 7.57343 20.9133C7.4461 20.9073 7.31878 20.9133 7.19585 20.9133L7.14317 21.0709C6.95145 21.0709 6.76413 21.0694 6.57827 21.0709C6.53437 21.0709 6.4568 21.083 6.45388 21.1027C6.42168 21.2587 6.30753 21.2102 6.21679 21.2133C6.10118 21.2178 5.98557 21.2133 5.91239 21.2133L5.6636 21.5132L5.98264 21.5299C5.99288 21.7768 6.1846 21.6132 6.26216 21.701C6.30607 21.751 6.36021 21.8162 6.41144 21.8131C6.52998 21.8086 6.60022 21.8404 6.60461 21.9555C6.7012 21.9767 6.84755 21.9798 6.85486 22.0131C6.8856 22.154 6.97633 22.1176 7.05536 22.1206C7.13 22.1237 7.2061 22.1206 7.29244 22.1206C7.29976 22.363 7.48562 22.2449 7.59684 22.2918L7.62172 22.4039L7.61733 22.4069ZM14.7722 13.097C14.8878 12.9879 14.9756 12.897 15.0708 12.8167C15.1849 12.7198 15.2464 12.6047 15.22 12.5017C15.4234 12.2926 15.6005 12.1093 15.7878 11.9169L15.7878 11.7397L15.5859 11.5216L15.3766 11.5216L15.3986 11.4716C15.343 11.4337 15.2478 11.4034 15.2376 11.3549C15.2069 11.1974 15.1044 11.2171 15.002 11.2156C14.98 11.2156 14.9405 11.2065 14.939 11.1959C14.9083 10.9975 14.7415 11.1095 14.6434 11.0535C14.6493 10.8172 14.459 10.9566 14.3917 10.9187C14.3376 10.8535 14.3024 10.8066 14.2629 10.7672C14.2585 10.7627 14.2161 10.7884 14.2 10.8081C14.1575 10.8581 14.118 10.9111 14.0785 10.9626C14.0434 11.1202 14.0522 11.2959 14.039 11.4686C14.0317 11.5564 13.9819 11.6397 13.9512 11.7246L13.8927 11.7109L13.8927 13.3287L13.7653 13.3621L13.7653 13.6408C13.9819 13.6408 14.1912 13.6438 14.399 13.6378C14.4283 13.6378 14.4605 13.6029 14.4868 13.5772C14.5776 13.4848 14.6668 13.3908 14.7766 13.2772L14.7766 13.0985L14.7722 13.097ZM15.182 26.0637C15.2069 26.0122 15.2186 25.9546 15.2537 25.9243C15.3283 25.8561 15.4205 25.8061 15.4952 25.7365C15.5537 25.6819 15.5976 25.6092 15.6488 25.5456C15.7132 25.4668 15.7732 25.382 15.8449 25.3123C15.9152 25.2457 16.003 25.1972 16.0747 25.1321C16.0893 25.1184 16.0849 25.0518 16.0674 25.0336C15.984 24.9533 15.8918 24.8821 15.7922 24.7973L15.7922 24.5746C15.7074 24.5292 15.6664 24.4565 15.6093 24.4034C15.5361 24.3353 15.4395 24.2929 15.3708 24.2217C15.3005 24.1474 15.2595 24.0429 15.1893 23.9702C15.1249 23.9036 15.0386 23.8596 14.9625 23.8051L14.8907 24.0823L14.7664 24.1277L14.7664 24.3489L14.4941 24.5958C14.4824 24.664 14.4854 24.817 14.4502 24.8261C14.2688 24.8745 14.3361 25.0139 14.3332 25.1184C14.3302 25.226 14.3332 25.3229 14.1971 25.326C14.1546 25.6653 14.339 25.7637 14.6142 25.7728L14.6405 25.9016C14.7503 25.9516 14.9317 25.8304 14.9288 26.0637L15.179 26.0637L15.182 26.0637ZM17.5162 27.121L17.5162 27.1831C17.5777 27.2134 17.6391 27.2437 17.7006 27.274C17.7474 27.2967 17.7957 27.3149 17.8411 27.3391C17.8894 27.3664 17.9304 27.4043 17.9801 27.43C18.0474 27.4649 18.1191 27.4921 18.1879 27.5224L18.1733 27.5754C18.2201 27.5754 18.2684 27.583 18.3123 27.5739C18.3518 27.5663 18.387 27.5391 18.425 27.5209C18.3987 27.4906 18.3723 27.4603 18.3474 27.43C18.3255 27.4027 18.305 27.3725 18.2816 27.3452C18.2201 27.271 18.1645 27.1907 18.0943 27.1255C18.0211 27.0574 17.9274 27.0119 17.8528 26.9438C17.7547 26.8529 17.6684 26.7499 17.5747 26.6529C17.5206 26.5969 17.4591 26.5469 17.4108 26.4878C17.3025 26.356 17.2016 26.2151 17.0918 26.0849C17.0742 26.0637 17.0186 26.0773 16.9689 26.0758C16.9747 26.2212 16.9689 26.3409 16.8313 26.4227C16.7332 26.4802 16.6586 26.5848 16.581 26.6726C16.5518 26.7059 16.5386 26.7574 16.5137 26.8089C16.7069 26.8322 16.8162 26.8736 16.8415 26.9332C16.9864 27.0665 17.2177 26.8317 17.2864 27.121L17.5147 27.121L17.5162 27.121ZM13.4551 26.9801C13.4551 27.118 13.4463 27.227 13.4609 27.3346C13.4653 27.3679 13.5605 27.4209 13.5648 27.4164C13.6439 27.3285 13.7156 27.2331 13.8034 27.121L14.0141 27.121C14.0361 27.068 14.0463 27.0195 14.0741 26.9877C14.1034 26.9544 14.1575 26.9453 14.1897 26.9135C14.2907 26.8105 14.3405 26.6408 14.5322 26.665C14.5615 26.6696 14.5966 26.6226 14.6302 26.5999C14.5995 26.5742 14.5702 26.5317 14.5366 26.5287C14.4327 26.5196 14.3273 26.5257 14.2117 26.5257C14.2044 26.2833 14.0185 26.4 13.9336 26.3303L13.7507 26.1758L13.7507 26.509C13.5429 26.5166 13.6161 26.6726 13.6073 26.7862C13.6 26.8832 13.6453 27.0119 13.4551 26.9831L13.4551 26.9801ZM14.781 19.5334L14.8907 19.5697C14.9625 19.6651 14.8337 19.8651 14.9947 19.853C15.0912 19.6727 15.1454 19.5394 15.2288 19.4288C15.2859 19.3516 15.3883 19.3137 15.46 19.2455C15.4908 19.2168 15.4952 19.1577 15.5142 19.1032L14.781 19.1032L14.781 19.5334ZM14.1912 24.5277C14.1912 24.4549 14.1985 24.3944 14.1883 24.3353C14.1824 24.305 14.1517 24.2671 14.1224 24.255C14.1034 24.2474 14.0639 24.2762 14.0434 24.2989C13.9512 24.3974 13.8619 24.4989 13.7507 24.6231L13.7507 24.7791C13.6614 24.873 13.6087 24.9624 13.5312 25.0018C13.3775 25.0821 13.4829 25.1927 13.4624 25.2957L13.6849 25.2957L13.8971 25.1003L13.8971 24.8685L13.9395 24.8897C13.9732 24.8352 14.0346 24.7791 14.0332 24.7261C14.0288 24.6049 14.0595 24.5307 14.1897 24.5261L14.1912 24.5277ZM15.6415 13.0061C15.5332 13.0924 15.4469 13.1545 15.3722 13.2272C15.3561 13.2439 15.3752 13.3 15.3781 13.3302L15.643 13.3302L15.643 13.0061L15.6415 13.0061ZM15.76 12.7077L15.8669 12.8834C15.8947 12.8349 15.9444 12.7879 15.943 12.7395C15.943 12.6865 15.8947 12.6334 15.8683 12.5804L15.76 12.7077Z" fill="black"/>
</svg>
